<?xml version="1.0" encoding="UTF-8" standalone="no"?>
<svg
   version="1.1"
   width="338.91537"
   height="368.62585"
   id="svg837"
   sodipodi:docname="ICON.svg"
   inkscape:version="1.1 (c68e22c387, 2021-05-23)"
   xmlns:inkscape="http://www.inkscape.org/namespaces/inkscape"
   xmlns:sodipodi="http://sodipodi.sourceforge.net/DTD/sodipodi-0.dtd"
   xmlns:xlink="http://www.w3.org/1999/xlink"
   xmlns="http://www.w3.org/2000/svg"
   xmlns:svg="http://www.w3.org/2000/svg">
  <sodipodi:namedview
     id="namedview839"
     pagecolor="#ffffff"
     bordercolor="#666666"
     borderopacity="1.0"
     inkscape:pageshadow="2"
     inkscape:pageopacity="0.0"
     inkscape:pagecheckerboard="0"
     showgrid="false"
     inkscape:zoom="0.88458835"
     inkscape:cx="169.5704"
     inkscape:cy="291.09585"
     inkscape:window-width="1920"
     inkscape:window-height="991"
     inkscape:window-x="-9"
     inkscape:window-y="-9"
     inkscape:window-maximized="1"
     inkscape:current-layer="svg837" />
  <defs
     id="defs689">
    <linearGradient
       id="grad37">
      <stop
         offset="0%"
         stop-color="#ebce6a"
         stop-opacity="1.0000"
         id="stop684" />
      <stop
         offset="100%"
         stop-color="#b17d18"
         stop-opacity="1.0000"
         id="stop686" />
    </linearGradient>
  </defs>
  <defs
     id="defs698">
    <linearGradient
       id="grad38">
      <stop
         offset="0%"
         stop-color="#ebce6a"
         stop-opacity="1.0000"
         id="stop693" />
      <stop
         offset="100%"
         stop-color="#b17d18"
         stop-opacity="1.0000"
         id="stop695" />
    </linearGradient>
  </defs>
  <defs
     id="defs707">
    <linearGradient
       id="grad39">
      <stop
         offset="0%"
         stop-color="#b17d18"
         stop-opacity="1.0000"
         id="stop702" />
      <stop
         offset="100%"
         stop-color="#ebce6a"
         stop-opacity="1.0000"
         id="stop704" />
    </linearGradient>
  </defs>
  <defs
     id="defs716">
    <linearGradient
       id="grad40">
      <stop
         offset="0%"
         stop-color="#b17d18"
         stop-opacity="1.0000"
         id="stop711" />
      <stop
         offset="100%"
         stop-color="#ebce6a"
         stop-opacity="1.0000"
         id="stop713" />
    </linearGradient>
  </defs>
  <defs
     id="defs725">
    <linearGradient
       id="grad41">
      <stop
         offset="0%"
         stop-color="#b17d18"
         stop-opacity="1.0000"
         id="stop720" />
      <stop
         offset="100%"
         stop-color="#ebce6a"
         stop-opacity="1.0000"
         id="stop722" />
    </linearGradient>
  </defs>
  <defs
     id="defs734">
    <linearGradient
       id="grad42">
      <stop
         offset="0%"
         stop-color="#b17d18"
         stop-opacity="1.0000"
         id="stop729" />
      <stop
         offset="100%"
         stop-color="#ebce6a"
         stop-opacity="1.0000"
         id="stop731" />
    </linearGradient>
  </defs>
  <defs
     id="defs743">
    <linearGradient
       id="grad43">
      <stop
         offset="0%"
         stop-color="#ebce6a"
         stop-opacity="1.0000"
         id="stop738" />
      <stop
         offset="100%"
         stop-color="#b17d18"
         stop-opacity="1.0000"
         id="stop740" />
    </linearGradient>
  </defs>
  <defs
     id="defs753">
    <linearGradient
       id="grad44">
      <stop
         offset="0%"
         stop-color="#ebce6a"
         stop-opacity="1.0000"
         id="stop747" />
      <stop
         offset="100%"
         stop-color="#b17d18"
         stop-opacity="1.0000"
         id="stop749" />
    </linearGradient>
    <linearGradient
       xlink:href="#grad44"
       id="grad45"
       x1="0"
       y1="0"
       x2="0"
       y2="1"
       gradientUnits="objectBoundingBox" />
  </defs>
  <defs
     id="defs763">
    <linearGradient
       id="grad46">
      <stop
         offset="0%"
         stop-color="#ebce6a"
         stop-opacity="1.0000"
         id="stop757" />
      <stop
         offset="100%"
         stop-color="#b17d18"
         stop-opacity="1.0000"
         id="stop759" />
    </linearGradient>
    <linearGradient
       xlink:href="#grad46"
       id="grad47"
       x1="0"
       y1="0"
       x2="0"
       y2="1"
       gradientTransform="rotate(-161,0.5,0.5)"
       gradientUnits="objectBoundingBox" />
  </defs>
  <defs
     id="defs772">
    <linearGradient
       id="grad48">
      <stop
         offset="0%"
         stop-color="#b17d18"
         stop-opacity="1.0000"
         id="stop767" />
      <stop
         offset="100%"
         stop-color="#ebce6a"
         stop-opacity="1.0000"
         id="stop769" />
    </linearGradient>
  </defs>
  <defs
     id="defs781">
    <linearGradient
       id="grad49">
      <stop
         offset="0%"
         stop-color="#b17d18"
         stop-opacity="1.0000"
         id="stop776" />
      <stop
         offset="100%"
         stop-color="#ebce6a"
         stop-opacity="1.0000"
         id="stop778" />
    </linearGradient>
  </defs>
  <defs
     id="defs790">
    <linearGradient
       id="grad50">
      <stop
         offset="0%"
         stop-color="#ebce6a"
         stop-opacity="1.0000"
         id="stop785" />
      <stop
         offset="100%"
         stop-color="#b17d18"
         stop-opacity="1.0000"
         id="stop787" />
    </linearGradient>
  </defs>
  <defs
     id="defs799">
    <linearGradient
       id="grad51">
      <stop
         offset="0%"
         stop-color="#ebce6a"
         stop-opacity="1.0000"
         id="stop794" />
      <stop
         offset="100%"
         stop-color="#b17d18"
         stop-opacity="1.0000"
         id="stop796" />
    </linearGradient>
  </defs>
  <defs
     id="defs808">
    <linearGradient
       id="grad52">
      <stop
         offset="0%"
         stop-color="#ebce6a"
         stop-opacity="1.0000"
         id="stop803" />
      <stop
         offset="100%"
         stop-color="#b17d18"
         stop-opacity="1.0000"
         id="stop805" />
    </linearGradient>
  </defs>
  <path
     d="m 294.08836,228.42313 c 12.72249,13.88657 20.04551,30.16196 20.04551,47.56883 0,50.89542 -62.59776,92.15505 -139.82163,92.15505 -77.22117,0 -139.818931,-41.25963 -139.818931,-92.15505 0,-18.09481 7.913203,-34.97034 21.584342,-49.20633 C 24.335225,222.79373 0,199.90773 0,172.26854 c 0,-30.29592 29.241375,-54.8828 65.42287,-55.129 19.121311,-29.09927 40.57711,-44.88494 79.46876,-48.69581 4.33859,-0.42544 23.86543,7.2153 31.27806,-39.39131 1.33426,-8.39296 0.96766,34.71962 8.97047,36.21227 1.25279,0.23354 26.28773,5.99148 11.45704,-64.97570002 -1.18309,-5.67104008 26.50588,73.97966002 31.82479,75.90410002 26.5955,9.62765 35.31704,22.2904 48.83701,44.97546 34.42451,1.85746 61.65636,25.77448 61.65636,55.01315 0,24.26823 -18.76194,44.87496 -44.827,52.24143 z M 43.366921,146.35556 c -10.615205,0 -19.221787,11.75666 -19.221787,26.25876 0,14.50301 8.606582,26.25968 19.221787,26.25968 2.893905,0 5.636641,-0.87443 8.097863,-2.44041 -2.727348,-8.488 -4.229064,-17.74541 -4.229064,-27.43461 0,-7.35651 0.86989,-14.46137 2.479324,-21.1761 -1.985994,-0.94683 -4.124061,-1.46732 -6.348123,-1.46732 z m 253.606299,2.38338 c 10.61701,0 19.22359,11.75665 19.22359,26.25694 0,14.50212 -8.60658,26.25968 -19.22359,26.25968 -2.8921,0 -5.63484,-0.87533 -8.09606,-2.4377 2.72735,-8.49071 4.22907,-17.74631 4.22907,-27.4346 0,-7.35922 -0.86989,-14.46409 -2.48114,-21.177 1.9878,-0.94865 4.12316,-1.46732 6.34813,-1.46732 z m -8.76771,120.58175 c 0.38742,2.40419 0.592,4.84188 0.592,7.31034 0,40.09012 -52.64154,72.58929 -117.57742,72.58929 -62.62854,0 -113.815425,-30.23618 -117.369215,-68.35299 -0.384708,-1.82396 -0.584755,-3.67417 -0.584755,-5.5425 0,-31.06533 15.910588,-41.78012 41.02066,-55.09189 -15.790198,-11.3982 -26.254236,-31.32694 -26.254236,-54.00747 0,-35.40666 25.504736,-64.11125 56.965646,-64.11125 19.37748,0 36.49197,10.8922 46.78132,27.52965 10.40519,-15.40639 26.85527,-25.35627 45.37825,-25.35627 31.46091,0 56.96294,28.70459 56.96294,64.11123 0,21.96182 -9.8123,41.3393 -24.76881,52.89319 22.34379,12.38577 36.96448,21.89029 38.85362,48.02867 z"
     style="fill:#cca33e;fill-opacity:1;fill-rule:evenodd;stroke-width:9.05194"
     id="path812" />
  <path
     d="m 174.5322,184.31757 c 77.22116,0 139.81983,41.25963 139.81983,92.15415 0,50.89541 -62.59867,92.15414 -139.81983,92.15414 -77.22117,0 -139.819835,-41.25873 -139.819835,-92.15414 0,-50.89452 62.598665,-92.15415 139.819835,-92.15415 z m -3.3112,19.72237 c 64.93588,0 117.57561,32.50007 117.57561,72.59199 0,40.09194 -51.4313,65.0961 -116.36627,65.0961 -64.93407,0 -118.78404,-25.00416 -118.78404,-65.0961 0,-40.09192 52.63973,-72.59199 117.5747,-72.59199 z"
     style="fill:#cca33e;fill-opacity:1;fill-rule:evenodd;stroke-width:9.05194"
     id="path814" />
  <path
     d="m 147.83713,194.40505 a 16.342366,12.711635 0 0 1 16.34237,12.71254 16.342366,12.711635 0 1 1 -16.34237,-12.71254 z"
     style="fill:#cca33e;fill-opacity:1;fill-rule:evenodd;stroke-width:9.05194"
     id="path816" />
  <path
     d="m 197.51868,194.44307 a 16.342366,12.711635 0 0 1 16.34236,12.71164 16.342366,12.711635 0 1 1 -16.34236,-12.71164 z"
     style="fill:#cca33e;fill-opacity:1;fill-rule:evenodd;stroke-width:9.05194"
     id="path818" />
  <path
     d="m 130.35603,138.29843 a 13.357037,15.359325 0 0 1 13.35703,15.35932 13.357037,15.359325 0 1 1 -13.35703,-15.35932 z"
     style="fill:#cca33e;fill-opacity:1;fill-rule:evenodd;stroke-width:9.05194"
     id="path820" />
  <path
     d="m 236.5099,122.19233 18.10206,28.76886 -18.10206,30.63899 -31.15315,-0.0281 -19.44898,-30.60823 19.49786,-28.78424 z m -16.25004,14.34097 c 7.37733,0 13.35794,6.87586 13.35794,15.35933 0,8.48258 -5.98061,15.35933 -13.35794,15.35933 -7.37461,0 -13.35522,-6.87675 -13.35522,-15.35933 0,-8.48347 5.98061,-15.35933 13.35522,-15.35933 z"
     style="fill:#cca33e;fill-opacity:1;fill-rule:evenodd;stroke-width:9.05194"
     id="path822" />
  <g
     id="Layer1007"
     transform="matrix(9.0519365,0,0,9.0519365,-2200.3375,-2745.9463)"
     style="fill:#cca33e;fill-opacity:1">
    <path
       d="m 255.2502,335.33 c 2.5177,-2.893 5.4773,-2.0124 8.9494,-1.6617 1.6213,0.1638 3.1992,0.6572 4.8138,0.308 -3.9809,3.4426 -9.6668,-0.1639 -13.7632,1.3537 z"
       style="fill:#cca33e;fill-opacity:1;fill-rule:evenodd"
       id="path824" />
  </g>
  <path
     d="m 110.17112,289.43952 c 28.6711,-25.11008 96.35967,6.23316 124.58361,-12.25361"
     style="fill:#cca33e;fill-opacity:1;stroke-width:9.05194"
     id="path827" />
</svg>
